<svg width="70" height="55" viewBox="0 0 70 55" fill="none" xmlns="http://www.w3.org/2000/svg">
<g clip-path="url(#clip0_43_10)">
<path fill-rule="evenodd" clip-rule="evenodd" d="M67.1804 19.8145C67.6796 19.8145 68.1676 19.9625 68.5827 20.2398C68.9977 20.5172 69.3212 20.9113 69.5123 21.3725C69.7033 21.8337 69.7533 22.3412 69.6559 22.8308C69.5585 23.3204 69.3181 23.7701 68.9652 24.1231C68.6122 24.4761 68.1624 24.7165 67.6728 24.8139C67.1833 24.9113 66.6758 24.8613 66.2146 24.6702C65.7534 24.4792 65.3592 24.1557 65.0819 23.7406C64.8045 23.3256 64.6565 22.8376 64.6565 22.3384C64.6565 21.669 64.9224 21.027 65.3957 20.5537C65.8691 20.0804 66.5111 19.8145 67.1804 19.8145ZM67.1804 20.1299C67.6213 20.1287 68.0525 20.2583 68.4196 20.5023C68.7868 20.7462 69.0732 21.0937 69.2428 21.5006C69.4123 21.9075 69.4573 22.3555 69.3721 22.788C69.2869 23.2205 69.0752 23.618 68.764 23.9301C68.4527 24.2422 68.0559 24.455 67.6236 24.5415C67.1914 24.6279 66.7432 24.5842 66.3358 24.4158C65.9285 24.2474 65.5802 23.9619 65.3352 23.5955C65.0902 23.229 64.9594 22.7981 64.9594 22.3573C64.961 21.7682 65.1954 21.2036 65.6114 20.7864C66.0274 20.3692 66.5913 20.1333 67.1804 20.1299ZM66.4359 22.5656H67.4707C67.9755 22.5656 68.026 22.8684 68.026 23.1335C68.0229 23.3986 68.0504 23.6633 68.108 23.9222H68.6254V23.8528C68.4992 23.7771 68.474 23.7077 68.4677 23.5373L68.4361 22.9631C68.4361 22.5214 68.2468 22.4457 68.0701 22.37C68.2087 22.3017 68.324 22.194 68.4015 22.0604C68.479 21.9268 68.5152 21.7732 68.5055 21.6191C68.5055 20.9502 67.9818 20.7672 67.4707 20.7672H66.0068V23.9222H66.4359V22.5656ZM66.4359 21.1332H67.4959C67.7105 21.1332 68.0701 21.1711 68.0701 21.6632C68.0701 22.1554 67.7357 22.2059 67.4392 22.2059H66.4485L66.4359 21.1332Z" fill="#403092"/>
<path fill-rule="evenodd" clip-rule="evenodd" d="M0.295654 39.9997C1.8897 40.3874 3.34881 41.2001 4.51769 42.3512C5.68658 43.5023 6.52152 44.9488 6.93365 46.5367H13.2435L17.4901 54.6828C22.7514 52.1129 28.5144 50.7341 34.369 50.6444C40.4518 50.6444 46.7112 52.5879 51.1533 54.79L55.3052 46.5367H61.6151C62.0285 44.9494 62.8639 43.5036 64.0325 42.3527C65.2012 41.2018 66.6597 40.3887 68.2531 39.9997V27.9352C66.6478 27.5425 65.1785 26.7229 64.001 25.5632C62.8236 24.4035 61.9817 22.9468 61.5646 21.3476H45.2851C46.8907 19.1493 47.7568 16.498 47.7586 13.7758C47.7611 12.0719 47.4277 10.3842 46.7776 8.80924C46.1275 7.23426 45.1733 5.80286 43.9696 4.59685C42.766 3.39085 41.3364 2.4339 39.7627 1.7807C38.189 1.1275 36.502 0.790866 34.7981 0.790039C31.3634 0.795042 28.0707 2.16126 25.6414 4.58938C23.2121 7.0175 21.8443 10.3095 21.8376 13.7442C21.8433 16.4648 22.7066 19.1144 24.3048 21.3161H6.93365C6.52489 22.9084 5.69152 24.3598 4.52246 25.5155C3.3534 26.6712 1.89251 27.4879 0.295654 27.8784L0.295654 39.9997Z" fill="#403092"/>
<path fill-rule="evenodd" clip-rule="evenodd" d="M4.31504 41.1543L4.56744 41.3625L4.81352 41.5834L5.0533 41.8105L5.28677 42.0377L5.50761 42.2838L5.72215 42.5362L5.92406 42.7886L6.12598 43.0536L6.31528 43.3249L6.49826 43.6026L6.66863 43.8802L6.83269 44.1704L6.97782 44.467L7.12925 44.7699L7.25545 45.0728L7.37534 45.3819L7.48892 45.6974V45.7732H12.8397L12.4737 45.0791H8.00002L7.89906 44.8267L7.75393 44.4986L7.60249 44.1768L7.43844 43.8613L7.26807 43.5458L7.07877 43.2492L6.88948 42.9526L6.68756 42.6624L6.47933 42.3784L6.25218 42.1134L6.02502 41.8421L5.78525 41.5834L5.53916 41.331L5.28677 41.0912L5.02175 40.8578L4.75043 40.6306L4.46648 40.4098L4.18885 40.2015L3.89228 40.0059L3.59572 39.7788L3.28653 39.6021L2.97735 39.4317L2.65554 39.274L2.34005 39.1478L2.00563 39.0153L1.75323 38.9206V28.9573L2.00563 28.8627L2.34005 28.7238L2.65554 28.585L2.97735 28.421L3.28653 28.2569L3.59572 28.0739L3.89228 27.8909L4.18885 27.689L4.46648 27.4871L4.75043 27.2663L5.02175 27.0391L5.28677 26.8119L5.53916 26.5659L5.78525 26.3135L6.02502 26.0611L6.25218 25.7897L6.47933 25.5184L6.68756 25.2408L6.88948 24.9505L7.07877 24.6477L7.26807 24.3448L7.43844 24.0356L7.60249 23.7201L7.75393 23.4046L7.89906 23.0765L8.00002 22.8052H25.5352C25.3143 22.578 25.1061 22.3509 24.9042 22.1111H7.51416V22.1805L7.40058 22.496L7.23652 22.8052L7.11032 23.1144L6.95889 23.4172L6.81376 23.7075L6.66863 24.004L6.49826 24.288L6.31528 24.5656L6.12598 24.8306L5.92406 25.0957L5.72215 25.3544L5.50761 25.6068L5.28677 25.8402L5.0533 26.08L4.81352 26.3008L4.56744 26.528L4.31504 26.7425L4.08158 26.9255L3.82287 27.1211L3.54524 27.3041L3.2676 27.4871L2.97735 27.6449L2.65554 27.79L2.36529 27.9351L2.06241 28.0676L1.75323 28.2001L1.43774 28.3137L1.12224 28.421H1.05914V39.4191H1.12224L1.43774 39.5201L1.75323 39.6463L2.06241 39.7788L2.36529 39.9239L2.65554 40.069L2.9458 40.2205L3.23605 40.3908L3.51369 40.5675L3.79132 40.7505L4.05003 40.9398L4.31504 41.1543ZM55.6586 45.7732H60.9841V45.6974L61.0977 45.3819L61.2176 45.0728L61.3501 44.7699L61.4952 44.467L61.6404 44.1704L61.8107 43.8802L61.9748 43.6026L62.1578 43.3249L62.3471 43.0536L62.549 42.7886L62.7509 42.5362L62.9717 42.2838L63.1863 42.0377L63.4197 41.8105L63.6658 41.5834L63.9056 41.3625L64.158 41.1543L64.423 40.9461L64.6817 40.7568L64.9594 40.5738L65.2875 40.4098L65.5714 40.2394L65.8617 40.0879L66.1582 39.9428L66.4611 39.7977L66.7703 39.6778L67.0795 39.5516L67.395 39.4507H67.4581V28.5093H67.395L67.0795 28.402L66.764 28.2885L66.4548 28.156L66.1519 28.0171L65.8617 27.872L65.5651 27.708L65.2812 27.5439L64.9972 27.3609L64.7259 27.1779L64.4609 26.9823L64.2022 26.7804L63.9435 26.5659L63.7037 26.3387L63.4639 26.1179L63.2304 25.8781L63.0096 25.6383L62.7951 25.3859L62.5931 25.1209L62.3912 24.8622L62.2019 24.5909L62.0189 24.3069L61.836 24.004L61.6656 23.7138L61.5015 23.4235L61.3564 23.1207L61.2239 22.8115L61.104 22.496L60.9904 22.1805V22.1111H44.692C44.4838 22.3509 44.2755 22.578 44.061 22.8052H60.4983L60.5992 23.0765L60.7444 23.4046L60.8958 23.7201L61.0535 24.0419L61.2302 24.3511L61.4069 24.654L61.6025 24.9568L61.8044 25.2471L62.0189 25.5247L62.2398 25.8024L62.4669 26.0737L62.7067 26.3387L62.9591 26.5848L63.2052 26.8309L63.4702 27.0707L63.7479 27.2978L64.0255 27.5187L64.3031 27.7206L64.5997 27.9288L64.8963 28.1118L65.2054 28.2948L65.5209 28.4651L65.8301 28.6292L66.1582 28.7743L66.4863 28.9131L66.745 29.0141V38.9206L66.4927 39.0153L66.1645 39.1478L65.8427 39.2992L65.5272 39.457L65.2117 39.6273L64.9089 39.804L64.606 39.9933L64.3094 40.1889L64.0255 40.4098L63.7479 40.6243L63.4702 40.8514L63.2052 41.0849L62.9591 41.3247L62.7067 41.5771L62.4669 41.8358L62.2398 42.1071L62.0189 42.3721L61.8107 42.6561L61.6025 42.9463L61.4069 43.2429L61.2239 43.5395L61.0472 43.8549L60.8895 44.1704L60.738 44.4922L60.5929 44.8204L60.492 45.0917H56.0056L55.6586 45.7732Z" fill="white"/>
<path fill-rule="evenodd" clip-rule="evenodd" d="M34.7981 2.31704C37.0594 2.31704 39.27 2.9876 41.1502 4.24393C43.0304 5.50026 44.4959 7.28593 45.3613 9.37514C46.2267 11.4643 46.4531 13.7632 46.0119 15.9811C45.5708 18.199 44.4818 20.2363 42.8828 21.8353C41.2838 23.4343 39.2466 24.5232 37.0287 24.9644C34.8108 25.4055 32.5119 25.1791 30.4227 24.3137C28.3335 23.4484 26.5478 21.9829 25.2915 20.1027C24.0351 18.2224 23.3646 16.0119 23.3646 13.7506C23.3713 10.7202 24.578 7.81596 26.7207 5.6732C28.8635 3.53045 31.7678 2.32371 34.7981 2.31704ZM34.7981 1.56616C37.2079 1.56616 39.5637 2.28076 41.5674 3.6196C43.5711 4.95844 45.1328 6.86138 46.055 9.08779C46.9772 11.3142 47.2185 13.7641 46.7484 16.1276C46.2782 18.4911 45.1178 20.6622 43.4138 22.3662C41.7097 24.0702 39.5387 25.2307 37.1752 25.7008C34.8116 26.171 32.3617 25.9297 30.1353 25.0075C27.9089 24.0853 26.006 22.5235 24.6671 20.5198C23.3283 18.5161 22.6137 16.1604 22.6137 13.7506C22.6204 10.5211 23.9062 7.42583 26.1898 5.14225C28.4734 2.85868 31.5686 1.57283 34.7981 1.56616Z" fill="white"/>
<path fill-rule="evenodd" clip-rule="evenodd" d="M34.7981 18.8931C34.3806 19.3168 33.8651 19.6311 33.2972 19.8083C32.7294 19.9855 32.1266 20.0201 31.5422 19.909C23.5665 16.8424 20.2538 12.4192 30.6399 7.71202C31.8703 7.26402 33.2837 7.54796 34.7603 8.69636H34.7981H34.836C36.3125 7.54796 37.7259 7.26402 38.9563 7.71202C49.3487 12.4192 46.0297 16.8424 38.054 19.909C37.4711 20.0198 36.8699 19.9857 36.3033 19.8096C35.7367 19.6336 35.222 19.321 34.8044 18.8994L34.7981 18.8931Z" fill="white"/>
<path fill-rule="evenodd" clip-rule="evenodd" d="M27.6174 11.3843H41.9724C42.5749 11.3959 43.1485 11.6451 43.568 12.0777C43.9876 12.5103 44.2192 13.0911 44.2124 13.6937C44.2209 14.2974 43.99 14.8798 43.5703 15.3138C43.1505 15.7477 42.5761 15.9978 41.9724 16.0094H27.6174C27.0144 15.9978 26.4406 15.7475 26.0218 15.3134C25.6031 14.8793 25.3736 14.2968 25.3837 13.6937C25.377 13.0922 25.6077 12.5123 26.0259 12.0799C26.4441 11.6475 27.016 11.3975 27.6174 11.3843Z" fill="#403092"/>
<path fill-rule="evenodd" clip-rule="evenodd" d="M27.0874 13.1889V14.5708C27.0418 14.6506 26.9794 14.7195 26.9044 14.7727C26.7404 14.9746 26.9044 15.2207 27.1884 15.2081H29.1129C29.2527 15.1863 29.385 15.1299 29.4976 15.0442C29.6102 14.9584 29.6997 14.8459 29.758 14.7169C29.8162 14.5879 29.8414 14.4464 29.8312 14.3052C29.821 14.164 29.7758 14.0276 29.6997 13.9082C29.5595 13.7516 29.3874 13.6268 29.1949 13.5423C29.1381 13.5423 29.1318 13.4539 29.1949 13.3908C29.8259 13.0059 29.5356 12.3749 28.9614 12.2424C28.6832 12.2136 28.4022 12.2594 28.1475 12.3749C28.1053 12.4025 28.0546 12.4139 28.0047 12.4069C27.9548 12.3999 27.9091 12.3751 27.8761 12.3371C27.8275 12.2818 27.7607 12.2458 27.6878 12.2354C27.615 12.225 27.5408 12.2409 27.4786 12.2803L26.9801 12.4948C26.947 12.5097 26.9182 12.5327 26.8965 12.5617C26.8747 12.5907 26.8606 12.6248 26.8556 12.6607C26.8505 12.6966 26.8547 12.7333 26.8676 12.7671C26.8806 12.801 26.9019 12.8311 26.9297 12.8545C27.0233 12.9389 27.08 13.0567 27.0874 13.1826V13.1889ZM28.1411 13.334C28.0528 13.334 27.9897 13.3025 27.9834 13.2078V12.8923C28.0213 12.7472 28.3431 12.6778 28.4819 12.7409C28.5248 12.7533 28.5638 12.7766 28.5951 12.8086C28.6264 12.8405 28.6488 12.88 28.6602 12.9233C28.6717 12.9665 28.6717 13.0119 28.6604 13.0552C28.649 13.0984 28.6267 13.138 28.5955 13.17C28.537 13.2298 28.4657 13.2756 28.3871 13.304C28.3084 13.3324 28.2243 13.3427 28.1411 13.334ZM27.9834 14.596V13.9082C27.9834 13.7757 28.0591 13.7442 28.179 13.7505C28.5197 13.7126 28.7532 13.7947 28.8479 14.0281C28.9004 14.1328 28.916 14.2522 28.8919 14.3668C28.8678 14.4814 28.8056 14.5845 28.7153 14.6591C28.463 14.8484 28.0402 14.8232 27.9834 14.5455V14.596ZM30.0215 14.6528L30.8355 13.069C30.8477 13.0532 30.8562 13.0348 30.8603 13.0151C30.8645 12.9955 30.8641 12.9753 30.8592 12.9558C30.8543 12.9364 30.8451 12.9183 30.8323 12.9029C30.8194 12.8876 30.8033 12.8753 30.785 12.8671C30.6777 12.7788 30.5389 12.6526 30.7345 12.5011C30.9439 12.4633 31.1462 12.3931 31.3339 12.2929C31.3826 12.2633 31.4401 12.2516 31.4964 12.2597C31.5528 12.2677 31.6047 12.2951 31.6431 12.3371C31.8135 12.5516 32.4571 13.7883 32.8609 14.514C33.2206 14.8989 33.1133 15.0756 32.8609 15.145C32.5981 15.0967 32.3287 15.0967 32.0659 15.145C31.8703 15.145 31.763 15.0566 31.7946 14.8989L31.9081 14.678C31.9712 14.4824 31.9081 14.3752 31.763 14.3878H30.8165C30.7852 14.4046 30.7578 14.4278 30.7361 14.4559C30.7143 14.4841 30.6988 14.5165 30.6905 14.551C30.6821 14.5855 30.6812 14.6215 30.6877 14.6564C30.6942 14.6914 30.708 14.7245 30.7282 14.7538C31.0626 15.0314 30.8102 15.2901 30.4947 15.1891C30.3256 15.1601 30.1528 15.1601 29.9836 15.1891C29.7817 15.1891 29.6745 15.0693 29.8196 14.8484C29.9001 14.7984 29.969 14.7317 30.0215 14.6528ZM31.0121 13.9082L31.3024 13.2772L31.6368 13.9082H31.0121ZM36.2935 14.6276L37.1075 13.0438C37.1198 13.0279 37.1283 13.0095 37.1324 12.9899C37.1365 12.9703 37.1361 12.95 37.1312 12.9306C37.1264 12.9111 37.1172 12.8931 37.1043 12.8777C37.0915 12.8623 37.0753 12.8501 37.057 12.8419C36.9497 12.7535 36.8109 12.6273 37.0065 12.4759C37.2271 12.4425 37.4404 12.3721 37.6375 12.2677C37.6862 12.2381 37.7436 12.2264 37.8 12.2344C37.8564 12.2425 37.9082 12.2698 37.9467 12.3118C38.1171 12.5264 38.7607 13.7631 39.1645 14.4887C39.5242 14.8736 39.4169 15.0503 39.1645 15.1197C38.9038 15.0714 38.6365 15.0714 38.3758 15.1197C38.1739 15.1197 38.0666 15.0314 38.0981 14.8736L38.2117 14.6528C38.2748 14.4572 38.2117 14.3499 38.0666 14.3625H37.0886C37.0572 14.3793 37.0298 14.4026 37.0081 14.4307C36.9864 14.4588 36.9708 14.4912 36.9625 14.5258C36.9541 14.5603 36.9532 14.5962 36.9597 14.6312C36.9662 14.6661 36.98 14.6993 37.0002 14.7285C37.3347 15.0062 37.0823 15.2649 36.7668 15.1639C36.5993 15.1376 36.4287 15.1398 36.262 15.1702C36.0601 15.1702 35.9528 15.0503 36.1042 14.8295C36.1815 14.7775 36.2479 14.7111 36.2998 14.6339L36.2935 14.6276ZM37.2842 13.9082L37.5744 13.2772L37.9152 13.9082H37.2842ZM33.5424 12.9176V14.4193C33.5448 14.4718 33.5333 14.5241 33.5089 14.5706C33.4845 14.6172 33.4481 14.6564 33.4036 14.6843C33.1386 14.8547 33.2332 15.1008 33.4604 15.1828C33.6031 15.1958 33.7467 15.1958 33.8895 15.1828C34.3348 15.1509 34.7818 15.1509 35.2272 15.1828C35.5426 15.1828 35.7067 15.1828 35.8581 15.0125C36.0111 14.8343 36.1077 14.6147 36.1358 14.3815C36.1358 14.1543 35.8771 14.0786 35.6436 14.2048C35.5546 14.2599 35.4825 14.3385 35.4354 14.432C35.3668 14.5623 35.2549 14.6645 35.1189 14.721C34.9829 14.7774 34.8315 14.7846 34.6908 14.7411C34.6068 14.7175 34.5342 14.6642 34.4866 14.5911C34.4391 14.5179 34.4197 14.43 34.4321 14.3436V12.9618C34.4321 12.7977 34.4637 12.7409 34.5899 12.5895C34.6079 12.5512 34.6154 12.5088 34.6117 12.4666C34.6081 12.4245 34.5933 12.384 34.569 12.3494C34.5446 12.3148 34.5115 12.2873 34.4731 12.2696C34.4346 12.2519 34.3922 12.2447 34.3501 12.2487C34.1154 12.3023 33.8717 12.3023 33.6371 12.2487C33.4162 12.2487 33.3279 12.3812 33.3847 12.5768C33.3847 12.6589 33.555 12.6967 33.574 12.9239L33.5424 12.9176ZM40.3255 13.1321V14.432C40.3239 14.4726 40.3143 14.5125 40.2972 14.5494C40.2802 14.5862 40.256 14.6194 40.2261 14.647C40.1962 14.6745 40.1612 14.6959 40.123 14.7099C40.0849 14.7239 40.0443 14.7302 40.0037 14.7285C39.9097 14.7442 39.8138 14.7442 39.7198 14.7285C39.6819 14.7294 39.6452 14.742 39.6148 14.7645C39.5844 14.7871 39.5618 14.8186 39.55 14.8546C39.5382 14.8906 39.5379 14.9294 39.5491 14.9656C39.5603 15.0018 39.5825 15.0336 39.6125 15.0566C39.8733 15.2152 40.1852 15.2672 40.4833 15.2018C40.679 15.154 40.8538 15.0437 40.9813 14.8878C41.1088 14.7318 41.182 14.5386 41.19 14.3373V12.539C41.19 12.2803 41.0259 12.1288 40.7546 12.2298C40.581 12.3153 40.3992 12.383 40.212 12.4317C40.1713 12.4432 40.1344 12.4652 40.1049 12.4955C40.0755 12.5258 40.0546 12.5634 40.0444 12.6044C40.0341 12.6453 40.0349 12.6883 40.0466 12.7289C40.0583 12.7695 40.0805 12.8063 40.111 12.8356C40.2498 12.9428 40.3255 13.0122 40.3255 13.1447V13.1321ZM41.739 14.4887V12.9744C41.7375 12.903 41.7197 12.8328 41.6869 12.7694C41.654 12.7059 41.6071 12.6509 41.5497 12.6084C41.5174 12.5693 41.4996 12.5203 41.4992 12.4696C41.4983 12.437 41.5041 12.4046 41.5161 12.3744C41.5282 12.3441 41.5463 12.3167 41.5693 12.2936C41.5923 12.2706 41.6198 12.2525 41.6501 12.2405C41.6803 12.2284 41.7127 12.2226 41.7453 12.2235H41.802C41.9895 12.2612 42.1825 12.2612 42.3699 12.2235C42.6413 12.1793 42.7801 12.3623 42.6917 12.5895C42.6782 12.6254 42.6566 12.6578 42.6286 12.6841C42.5849 12.749 42.5649 12.827 42.5719 12.905V14.413C42.5695 14.4904 42.594 14.5662 42.6413 14.6276C42.8179 14.7979 42.8243 15.145 42.4583 15.126C42.2846 15.1047 42.1084 15.1198 41.9409 15.1702C41.7705 15.1702 41.6632 15.1702 41.5938 15.0756C41.5737 15.0434 41.563 15.0062 41.563 14.9683C41.563 14.9304 41.5737 14.8932 41.5938 14.861C41.6443 14.7411 41.7768 14.678 41.7768 14.5266L41.739 14.4887Z" fill="white"/>
<path fill-rule="evenodd" clip-rule="evenodd" d="M5.77895 31.3614V36.4472C5.61585 36.7282 5.40188 36.9764 5.14796 37.1791C4.51697 37.8921 5.17951 38.8134 6.18909 38.7629H13.2057C15.6287 38.4537 16.4994 35.3808 15.3447 34.0431C14.8201 33.4615 14.1738 33.0026 13.4518 32.6991C13.2372 32.5729 13.2246 32.3583 13.4518 32.1375C15.6792 30.7367 14.7137 28.4147 12.6126 27.954C11.5935 27.8377 10.5619 27.9922 9.62167 28.402C9.47371 28.5087 9.29175 28.5573 9.1103 28.5387C8.92886 28.5201 8.76056 28.4356 8.63733 28.3011C8.46225 28.0964 8.21978 27.961 7.95366 27.9194C7.68755 27.8777 7.41531 27.9325 7.18605 28.0739L5.37512 28.8564C5.25897 28.9169 5.159 29.0043 5.08356 29.1113C5.00812 29.2184 4.95941 29.3419 4.9415 29.4717C4.92358 29.6014 4.93699 29.7335 4.98059 29.857C5.02419 29.9805 5.09673 30.0917 5.19213 30.1814C5.53474 30.4827 5.74545 30.9064 5.77895 31.3614ZM9.62798 31.9103C9.29987 31.9103 9.07902 31.7905 9.07902 31.4497V30.3139C9.18629 29.7776 10.3725 29.5252 10.8836 29.7397C11.04 29.7874 11.1816 29.8742 11.295 29.9919C11.4084 30.1096 11.4898 30.2544 11.5315 30.4124C11.5732 30.5704 11.5739 30.7365 11.5334 30.8949C11.4929 31.0532 11.4126 31.1986 11.3001 31.3172C11.09 31.5456 10.8293 31.7217 10.539 31.8312C10.2486 31.9408 9.93661 31.9809 9.62798 31.9482V31.9103ZM9.07902 36.4787V34.0494C9.07902 33.5825 9.33141 33.4626 9.77942 33.4941C11.0414 33.349 11.8491 33.6519 12.2213 34.5037C12.4361 34.8949 12.5058 35.3494 12.4181 35.787C12.3303 36.2245 12.0908 36.617 11.7418 36.8952C10.8205 37.6019 9.21784 37.5261 9.07902 36.4787ZM16.5184 36.6932L19.484 30.9071C19.5311 30.8484 19.5641 30.7797 19.5804 30.7063C19.5968 30.6329 19.5961 30.5567 19.5785 30.4835C19.5608 30.4104 19.5266 30.3423 19.4785 30.2845C19.4304 30.2266 19.3697 30.1806 19.301 30.1499C18.9161 29.8218 18.4113 29.3675 19.118 28.8185C19.8817 28.6783 20.6185 28.4185 21.3013 28.0487C21.4858 27.9447 21.6998 27.9056 21.9091 27.9376C22.1185 27.9697 22.311 28.071 22.456 28.2254C23.087 28.9952 25.4027 33.532 26.8729 36.1884C28.1917 37.5955 27.832 38.2202 26.8098 38.5357C25.8543 38.3624 24.8754 38.3624 23.9199 38.5357C23.1879 38.6367 22.803 38.2076 22.9166 37.6334L23.333 36.8194C23.5602 36.119 23.3331 35.7278 22.7904 35.772H19.4146C19.2981 35.8321 19.1958 35.9164 19.1144 36.0192C19.0331 36.122 18.9747 36.241 18.943 36.3683C18.9114 36.4955 18.9072 36.628 18.9309 36.7569C18.9545 36.8859 19.0054 37.0083 19.0802 37.116C20.3106 38.113 19.402 39.0468 18.241 38.7061C17.6194 38.5703 16.979 38.5425 16.348 38.6241C15.6287 38.5799 15.2312 38.1634 15.7549 37.3621C16.0484 37.1768 16.3016 36.9343 16.4994 36.6491L16.5184 36.6932ZM20.1339 34.0557L21.2066 31.8346L22.4686 34.0557H20.1339ZM39.4611 36.6932L42.4331 30.9071C42.4785 30.8471 42.5099 30.7777 42.5247 30.7039C42.5395 30.6301 42.5374 30.554 42.5186 30.4811C42.4997 30.4083 42.4647 30.3406 42.416 30.2833C42.3673 30.2259 42.3063 30.1803 42.2375 30.1499C41.8526 29.8218 41.3541 29.3675 42.0608 28.8185C42.8262 28.6772 43.5649 28.4175 44.2503 28.0487C44.4339 27.9452 44.6468 27.9064 44.8551 27.9384C45.0633 27.9704 45.2548 28.0715 45.3987 28.2254C45.9919 28.9952 48.3517 33.532 49.8156 36.1884C51.1344 37.5955 50.7747 38.2202 49.7652 38.5168C48.8075 38.3434 47.8265 38.3434 46.8689 38.5168C46.137 38.6178 45.7521 38.1887 45.8657 37.6145L46.2821 36.8005C46.5156 36.1001 46.2821 35.7089 45.7395 35.7531H42.37C42.2522 35.8118 42.1485 35.8953 42.0659 35.9978C41.9833 36.1003 41.9238 36.2194 41.8915 36.347C41.8591 36.4745 41.8547 36.6076 41.8785 36.737C41.9023 36.8665 41.9537 36.9893 42.0292 37.0971C43.2912 38.094 42.3447 39.0279 41.19 38.6872C40.5683 38.5519 39.9281 38.5242 39.2971 38.6051C38.584 38.561 38.1865 38.1445 38.7165 37.3432C39.0067 37.1559 39.2575 36.9136 39.4548 36.6301L39.4611 36.6932ZM43.0767 34.0557L44.1431 31.8346L45.405 34.0557H43.0767ZM29.3779 30.4338V35.9234C29.3885 36.114 29.3472 36.3039 29.2583 36.4729C29.1694 36.6418 29.0363 36.7834 28.8731 36.8825C27.9203 37.5135 28.2421 38.4221 29.0877 38.7124C29.6116 38.7314 30.1361 38.6955 30.6525 38.6051C32.2862 38.5114 33.9245 38.5324 35.5553 38.6682C36.6974 38.7692 37.3031 38.6178 37.7448 38.0372C38.2996 37.4095 38.6516 36.6287 38.7544 35.7972C38.6913 34.9833 37.8332 34.7119 36.9687 35.1662C36.6306 35.3586 36.3563 35.6461 36.18 35.9928C35.9201 36.4619 35.5098 36.8297 35.0152 37.037C34.5207 37.2442 33.9707 37.2787 33.4541 37.1349C33.1499 37.0429 32.8892 36.8441 32.72 36.5751C32.5507 36.3061 32.4843 35.9851 32.5329 35.671V30.56C32.4698 29.929 32.6528 29.7397 33.1008 29.1908C33.1751 29.0505 33.2094 28.8925 33.1999 28.7341C33.1904 28.5756 33.1375 28.4228 33.0469 28.2924C32.9563 28.1621 32.8315 28.0592 32.6863 27.9951C32.5411 27.9309 32.3811 27.908 32.2237 27.9288C31.366 28.1241 30.4754 28.1241 29.6177 27.9288C28.8163 27.9288 28.4945 28.3831 28.6838 29.1277C28.8163 29.4306 29.3148 29.5694 29.3779 30.3897V30.4338ZM54.2073 31.2163V35.9928C54.191 36.293 54.059 36.5751 53.8389 36.7799C53.6188 36.9847 53.3279 37.0961 53.0274 37.0908C52.6761 37.1135 52.3234 37.0859 51.9799 37.0087C51.8435 37.013 51.7118 37.0592 51.6026 37.1411C51.4935 37.223 51.4123 37.3367 51.3702 37.4665C51.3281 37.5963 51.3271 37.7359 51.3673 37.8663C51.4076 37.9967 51.4871 38.1115 51.595 38.195C52.5343 38.784 53.667 38.9811 54.75 38.7439C55.4649 38.5695 56.1037 38.1675 56.5703 37.5985C57.037 37.0295 57.306 36.3242 57.337 35.589V28.9952C57.337 28.0613 56.706 27.506 55.7343 27.872C55.1053 28.1872 54.4428 28.4306 53.7593 28.5977C53.6102 28.6423 53.4754 28.7253 53.3683 28.8384C53.2613 28.9514 53.1858 29.0906 53.1494 29.2419C53.113 29.3933 53.117 29.5516 53.1609 29.7009C53.2048 29.8503 53.2871 29.9855 53.3997 30.0931C53.8918 30.4906 54.1821 30.7556 54.1821 31.2163H54.2073ZM59.3688 36.1758V30.6357C59.3597 30.3761 59.2927 30.1218 59.1726 29.8914C59.0525 29.661 58.8824 29.4605 58.6747 29.3044C58.5651 29.1516 58.5056 28.9686 58.5044 28.7806C58.506 28.5474 58.5998 28.3244 58.7653 28.1601C58.9308 27.9958 59.1545 27.9036 59.3877 27.9036C59.457 27.897 59.5267 27.897 59.596 27.9036C60.2822 28.0296 60.9857 28.0296 61.6719 27.9036C62.6815 27.7206 63.1547 28.3831 62.8645 29.2286C62.8102 29.3656 62.7286 29.4902 62.6247 29.5946C62.4601 29.825 62.3881 30.1087 62.4228 30.3897V35.8982C62.4058 36.1806 62.4985 36.4586 62.6815 36.6743C63.3125 37.3053 63.3125 38.5673 61.9937 38.5168C61.3717 38.3666 60.7228 38.3666 60.1008 38.5168C59.4698 38.6114 59.0533 38.5168 58.8388 38.1571C58.752 38.0483 58.6973 37.9175 58.6805 37.7793C58.6638 37.6412 58.6858 37.5011 58.7441 37.3747C58.9334 36.9393 59.413 36.7437 59.413 36.1506L59.3688 36.1758Z" fill="#FAE00B"/>
<path fill-rule="evenodd" clip-rule="evenodd" d="M50.7748 53.6984C46.3578 51.3196 40.4076 49.9567 34.3691 49.9567C28.3305 49.9567 22.2667 51.3196 17.8498 53.6984L13.4329 44.9403C19.4146 41.7854 26.8855 40.0817 34.3691 40.0817C41.5929 40.0638 48.7218 41.7272 55.1917 44.9403L50.7748 53.6984Z" fill="#24B34B"/>
<path fill-rule="evenodd" clip-rule="evenodd" d="M20.7397 50.0449C20.3043 49.2247 19.8815 48.4044 19.4777 47.5715L18.2157 45.098L18.9098 44.9339C19.1685 45.4829 19.4272 46.0255 19.6922 46.5745C19.9572 47.1235 20.2096 47.6598 20.4746 48.2025C20.6387 48.5495 20.7964 48.8902 20.9353 49.231C20.9353 48.6378 20.9353 48.2908 20.9353 48.2025C20.9353 47.5715 20.992 46.9405 21.0173 46.3095C21.0425 45.6785 21.0741 45.0475 21.1056 44.4165L21.9259 44.2209C22.1404 44.6374 22.3676 45.0601 22.5948 45.4829C22.8219 45.9057 23.0428 46.3158 23.2636 46.7449C23.5746 47.3165 23.8507 47.9065 24.0902 48.5116C24.0902 48.1646 24.0902 47.7608 24.0902 47.3065C24.0902 46.7133 24.0902 46.1139 24.0902 45.5208V43.7288L24.7654 43.5647C24.7275 44.4986 24.6896 45.4577 24.6581 46.3663C24.6265 47.2749 24.5887 48.2592 24.5571 49.1742L23.9261 49.3256L22.9355 47.4327L21.9385 45.5397C21.7682 45.2242 21.6672 45.0286 21.6357 44.9592C21.6357 45.2179 21.6357 45.4387 21.6357 45.5902C21.6357 46.3032 21.5789 47.0162 21.5473 47.7292C21.5158 48.4422 21.4968 49.1552 21.4653 49.8683L20.7775 50.026L20.7397 50.0449ZM25.7876 48.8839C26.0336 47.9438 26.2734 46.991 26.5132 46.0823L27.2325 43.2871L27.9834 43.1987L29.3211 45.7732C29.7691 46.6376 30.2297 47.4958 30.684 48.3476L29.8953 48.4422L29.1003 46.8711L26.9233 47.1108L26.5132 48.8019L25.7749 48.8839H25.7876ZM27.0495 46.5114L28.8289 46.3158C28.5892 45.8426 28.3494 45.363 28.1222 44.8835C27.8951 44.4039 27.7436 44.0947 27.63 43.8108C27.601 44.168 27.5441 44.5225 27.4597 44.8708C27.3272 45.4198 27.182 45.9624 27.0495 46.5114ZM31.2898 48.2656C31.2898 47.3632 31.2456 46.4609 31.233 45.5586C31.2204 44.6563 31.2141 43.754 31.2141 42.858C32.394 42.858 33.5866 42.8075 34.7665 42.7886C34.7665 43.0031 34.7665 43.2176 34.7665 43.4196L31.9081 43.47L31.946 45.1485L34.4132 45.1106C34.4132 45.3188 34.4132 45.5334 34.4132 45.7416L31.9397 45.7921C31.9397 46.2022 31.9397 46.6124 31.9397 47.0162C31.9397 47.42 31.9397 47.8365 31.9397 48.2782H31.2456L31.2898 48.2656ZM35.7635 48.2277C35.8077 47.3317 35.8455 46.4294 35.8897 45.5334C35.9339 44.6374 35.9717 43.7288 36.0159 42.8264L39.8018 43.0347C39.8018 43.2492 39.8018 43.4574 39.8018 43.6657L36.7037 43.5016C36.7037 44.0569 36.6469 44.6058 36.6279 45.1611L39.5305 45.3125C39.5305 45.5271 39.5305 45.7353 39.5305 45.9435L36.6216 45.7858C36.5901 46.4168 36.5585 47.0099 36.5333 47.6283L39.7576 47.7986C39.7576 48.0132 39.7576 48.2214 39.7576 48.4296C38.4515 48.3665 37.1454 48.2845 35.8392 48.2151L35.7635 48.2277ZM40.66 48.5116C40.7735 47.6156 40.8997 46.7259 41.0133 45.8363C41.1269 44.9466 41.2594 44.0442 41.373 43.1482C42.1428 43.2681 42.9126 43.3754 43.6824 43.4827C44.0439 43.5208 44.3962 43.6211 44.7235 43.7792C44.9651 43.9203 45.1468 44.1447 45.2346 44.4102C45.3519 44.6734 45.3913 44.9646 45.3482 45.2494C45.3315 45.4253 45.2792 45.5959 45.1946 45.751C45.11 45.9061 44.9948 46.0424 44.856 46.1517C44.5181 46.4018 44.1017 46.5227 43.6824 46.4925C43.8243 46.5848 43.9536 46.6951 44.0673 46.8206C44.2578 47.0659 44.4187 47.3327 44.5468 47.6156L45.2536 49.2057L44.3891 49.0795C44.2061 48.6757 44.0231 48.2656 43.8464 47.8617C43.6698 47.4579 43.5562 47.2307 43.4489 47.0541C43.3665 46.9065 43.2646 46.7707 43.1461 46.6502C43.0563 46.5721 42.9566 46.5063 42.8495 46.4546C42.7254 46.42 42.5988 46.3947 42.4709 46.3789L41.6695 46.2653C41.6128 46.6628 41.5497 47.0541 41.5055 47.4516C41.4613 47.8491 41.3982 48.2466 41.3477 48.6378L40.6789 48.5116H40.66ZM41.7453 45.6154L43.2344 45.8299C43.4827 45.8743 43.7369 45.8743 43.9853 45.8299C44.1607 45.7958 44.3189 45.7022 44.4333 45.5649C44.5446 45.4371 44.6149 45.2789 44.6352 45.1106C44.6566 44.9944 44.6524 44.875 44.623 44.7606C44.5936 44.6462 44.5396 44.5395 44.4648 44.4481C44.2471 44.231 43.9577 44.1009 43.6508 44.0821L41.9977 43.8423C41.9156 44.4355 41.8399 45.0223 41.7579 45.6154H41.7453ZM46.0549 47.6535L46.6859 47.7608C46.6502 47.9959 46.6719 48.2362 46.749 48.4612C46.8299 48.6782 46.9752 48.8654 47.1655 48.9975C47.3841 49.1708 47.6384 49.2936 47.91 49.3572C48.1424 49.4186 48.3839 49.4379 48.623 49.414C48.8112 49.3929 48.9901 49.3209 49.1404 49.2057C49.2631 49.0969 49.3509 48.9542 49.3928 48.7956C49.4313 48.6379 49.418 48.472 49.355 48.3223C49.2641 48.1497 49.1319 48.0023 48.9701 47.8933C48.8439 47.8049 48.5599 47.6472 48.1182 47.4074C47.7961 47.2493 47.4933 47.0545 47.2159 46.8269C47.0165 46.661 46.8678 46.4423 46.7869 46.1959C46.722 45.9691 46.722 45.7286 46.7869 45.5018C46.8508 45.2414 46.9914 45.0062 47.1907 44.8267C47.4006 44.6278 47.6677 44.4998 47.9542 44.4607C48.2811 44.4163 48.6137 44.4377 48.9322 44.5238C49.2799 44.6063 49.6079 44.7564 49.8976 44.9655C50.1433 45.15 50.3297 45.4022 50.434 45.6911C50.53 45.98 50.5474 46.2893 50.4845 46.5871L49.8219 46.4672C49.8496 46.3226 49.8482 46.174 49.8179 46.0299C49.7875 45.8858 49.7288 45.7492 49.6452 45.628C49.4369 45.3722 49.1435 45.1997 48.8186 45.1422C48.5134 45.0285 48.1774 45.0285 47.8722 45.1422C47.7695 45.1841 47.6779 45.2492 47.6046 45.3324C47.5312 45.4156 47.4781 45.5146 47.4494 45.6217C47.427 45.7097 47.4239 45.8015 47.4402 45.8908C47.4566 45.98 47.492 46.0648 47.544 46.1391C47.8054 46.4124 48.1215 46.6274 48.4716 46.7701C48.8421 46.9465 49.1949 47.1578 49.5253 47.4011C49.7629 47.5827 49.9444 47.8277 50.0491 48.1078C50.1431 48.3646 50.1585 48.6436 50.0932 48.9092C50.0196 49.1859 49.8711 49.4369 49.6642 49.6348C49.4423 49.8484 49.1605 49.9893 48.8565 50.0386C48.5126 50.1022 48.1589 50.0871 47.8217 49.9945C47.4191 49.9034 47.0392 49.7317 46.7048 49.4897C46.437 49.2799 46.2354 48.9973 46.1243 48.6757C46.0125 48.3485 45.995 47.9965 46.0738 47.6598L46.0549 47.6535Z" fill="white"/>
</g>
<defs>
<clipPath id="clip0_43_10">
<rect width="69.4087" height="54" fill="white" transform="translate(0.295654 0.790039)"/>
</clipPath>
</defs>
</svg>
